<svg width="20" height="20" viewBox="0 0 20 20" fill="none" xmlns="http://www.w3.org/2000/svg">
<g clip-path="url(#clip0_90_1729)">
<path d="M19.921 5.86714C19.8738 4.80714 19.7024 4.07857 19.4567 3.44571C19.2061 2.77836 18.812 2.17415 18.3024 1.67571C17.8039 1.16915 17.2015 0.776786 16.5367 0.525714C15.901 0.28 15.1767 0.108571 14.1167 0.0628571C13.0481 0.0114286 12.7081 0 9.99953 0C7.29096 0 6.95096 0.0114286 5.88525 0.0571429C4.82525 0.105714 4.09667 0.277143 3.46525 0.522857C2.79382 0.775714 2.19382 1.16571 1.69382 1.67571C1.18818 2.17491 0.796807 2.77781 0.546674 3.44286C0.30096 4.07857 0.129531 4.80286 0.0823884 5.86286C0.0309598 6.93143 0.0195312 7.27143 0.0195312 9.98C0.0195312 12.6886 0.0295312 13.0286 0.0766741 14.0943C0.123817 15.1543 0.295245 15.8829 0.54096 16.5143C0.793817 17.1857 1.1881 17.7857 1.69525 18.2857C2.19525 18.7914 2.7981 19.1857 3.46096 19.4343C4.09667 19.68 4.82096 19.8514 5.88239 19.8986C6.94667 19.9457 7.28525 19.9557 9.99525 19.9557C12.7052 19.9557 13.0438 19.9457 14.1095 19.8986C15.1681 19.8514 15.8981 19.68 16.5295 19.4343C17.1928 19.1778 17.7952 18.7856 18.298 18.2828C18.8009 17.7799 19.1931 17.1776 19.4495 16.5143C19.6952 15.8786 19.8667 15.1543 19.9138 14.0929C19.9595 13.0286 19.971 12.69 19.971 9.98C19.971 7.27 19.9681 6.93143 19.921 5.86714ZM18.1238 14.0157C18.081 14.99 17.9167 15.5157 17.781 15.8671C17.6147 16.2979 17.3601 16.689 17.0336 17.0155C16.7071 17.342 16.316 17.5966 15.8852 17.7629C15.5352 17.8986 15.0052 18.0629 14.0338 18.1057C12.981 18.1514 12.6652 18.1629 10.0024 18.1629C7.33953 18.1629 7.02096 18.1514 5.97096 18.1057C4.99667 18.0629 4.47096 17.8986 4.11953 17.7629C3.68646 17.6035 3.29485 17.3486 2.97382 17.0171C2.64323 16.6956 2.3889 16.3041 2.22953 15.8714C2.09239 15.52 1.92953 14.99 1.88667 14.02C1.83953 12.9671 1.8281 12.6514 1.8281 9.98857C1.8281 7.32571 1.83953 7.00571 1.88525 5.95714C1.9281 4.98286 2.09239 4.45714 2.2281 4.10571C2.38953 3.67286 2.64239 3.27857 2.9781 2.95857C3.30096 2.62714 3.69096 2.37286 4.12382 2.21571C4.47525 2.07857 5.00525 1.91429 5.97525 1.87143C7.0281 1.82429 7.34382 1.81286 10.0067 1.81286C12.6738 1.81286 12.9895 1.82429 14.0381 1.87C15.0124 1.91429 15.5381 2.07857 15.8895 2.21429C16.3224 2.37429 16.7167 2.62857 17.0367 2.95857C17.3681 3.28286 17.621 3.67286 17.7795 4.10571C17.9167 4.45571 18.0795 4.98571 18.1238 5.95714C18.171 7.01 18.181 7.32571 18.181 9.98857C18.181 12.6514 18.171 12.9629 18.1238 14.0157Z" fill="#000"/>
<path d="M9.99986 4.8541C8.66591 4.89268 7.39952 5.44969 6.46962 6.40688C5.53971 7.36406 5.01953 8.64602 5.01953 9.98053C5.01953 11.315 5.53971 12.597 6.46962 13.5542C7.39952 14.5114 8.66591 15.0684 9.99986 15.107C11.3338 15.0684 12.6002 14.5114 13.5301 13.5542C14.46 12.597 14.9802 11.315 14.9802 9.98053C14.9802 8.64602 14.46 7.36406 13.5301 6.40688C12.6002 5.44969 11.3338 4.89268 9.99986 4.8541ZM9.99986 13.3055C9.56312 13.3055 9.13066 13.2195 8.72717 13.0524C8.32367 12.8852 7.95705 12.6403 7.64823 12.3315C7.33941 12.0226 7.09444 11.656 6.9273 11.2525C6.76017 10.849 6.67415 10.4166 6.67415 9.97982C6.67415 9.54308 6.76017 9.11061 6.9273 8.70712C7.09444 8.30363 7.33941 7.937 7.64823 7.62818C7.95705 7.31936 8.32367 7.07439 8.72717 6.90726C9.13066 6.74012 9.56312 6.6541 9.99986 6.6541C10.8819 6.6541 11.7278 7.00449 12.3515 7.62818C12.9752 8.25187 13.3256 9.09778 13.3256 9.97982C13.3256 10.8618 12.9752 11.7078 12.3515 12.3315C11.7278 12.9551 10.8819 13.3055 9.99986 13.3055ZM16.5256 4.65124C16.5256 4.96875 16.3994 5.27324 16.1749 5.49775C15.9504 5.72226 15.6459 5.84839 15.3284 5.84839C15.0109 5.84839 14.7064 5.72226 14.4819 5.49775C14.2574 5.27324 14.1313 4.96875 14.1313 4.65124C14.1313 4.33374 14.2574 4.02924 14.4819 3.80474C14.7064 3.58023 15.0109 3.4541 15.3284 3.4541C15.6459 3.4541 15.9504 3.58023 16.1749 3.80474C16.3994 4.02924 16.5256 4.33374 16.5256 4.65124Z" fill="#000"/>
</g>
<defs>
<clipPath id="clip0_90_1729">
<rect width="20" height="20" fill="white"/>
</clipPath>
</defs>
</svg>
