<svg width="20" height="20" viewBox="0 0 20 20" fill="none" xmlns="http://www.w3.org/2000/svg">
<g opacity="0.8" clip-path="url(#clip0_90_1733)">
<path d="M19.16 2.22872L16.1629 17.5287C16.1629 17.5287 16.0343 18.2287 15.1671 18.2287C14.7057 18.2287 14.4686 18.0101 14.4686 18.0101L7.97714 12.6244L4.80143 11.023L0.725714 9.93729C0.725714 9.93729 0 9.72872 0 9.12872C0 8.62872 0.745714 8.39015 0.745714 8.39015L17.8 1.61586C17.8 1.61586 18.3214 1.42729 18.7014 1.42872C18.9357 1.42872 19.2014 1.52872 19.2014 1.82872C19.2014 2.02872 19.1614 2.22872 19.1614 2.22872H19.16Z" fill="#000"/>
<path d="M10.3994 14.633L7.65794 17.333C7.65794 17.333 7.53936 17.4244 7.38079 17.4273C7.32037 17.4294 7.26026 17.4177 7.20508 17.393L7.97651 12.6216L10.3994 14.633Z" fill="#B0BEC5"/>
<path d="M15.9179 4.78577C15.8534 4.70178 15.7583 4.6468 15.6533 4.63287C15.5483 4.61894 15.4421 4.64721 15.3579 4.71148L4.80078 11.0286C4.80078 11.0286 6.4865 15.7429 6.74364 16.5572C7.00078 17.3743 7.2065 17.3943 7.2065 17.3943L7.97792 12.6229L15.8436 5.34577C15.9276 5.28127 15.9826 5.1861 15.9965 5.08112C16.0105 4.97615 15.9822 4.86993 15.9179 4.78577V4.78577Z" fill="#000"/>
</g>
<defs>
<clipPath id="clip0_90_1733">
<rect width="20" height="20" fill="white"/>
</clipPath>
</defs>
</svg>
