<svg width="24" height="24" xmlns="http://www.w3.org/2000/svg">

 <g>
  <title>background</title>
  <rect fill="none" id="canvas_background" height="402" width="582" y="-1" x="-1"/>
 </g>
 <g>
  <title>Layer 1</title>
  <path fill="#000" id="svg_3" d="m19.5,23.5l-15.3,0c-2.1,0 -3.8,-1.700001 -3.8,-3.799999l0,-15.400001c0,-2.1 1.7,-3.8 3.8,-3.8l15.3,0c2.1,0 3.799999,1.7 3.799999,3.8l0,15.3c0.1,2.199999 -1.599998,3.9 -3.799999,3.9zm-15.3,-22c-1.6,0 -2.8,1.3 -2.8,2.8l0,15.3c0,1.6 1.3,2.799999 2.8,2.799999l15.3,0c1.6,0 2.799999,-1.299999 2.799999,-2.799999l0,-15.3c0,-1.6 -1.299999,-2.8 -2.799999,-2.8l-15.3,0z"/>
  <path fill="#000" id="svg_7" d="m11.9,20.700001c-1.599999,0 -3.2,-0.400002 -4.599999,-1.300001l-2.9,0.9c-0.2,0.1 -0.4,0 -0.5,-0.099998c-0.1,-0.1 -0.2,-0.300001 -0.1,-0.5l0.9,-2.800001c-1,-1.4 -1.5,-3.099999 -1.5,-4.9c0,-4.8 3.9,-8.7 8.7,-8.7c4.800001,0 8.700001,3.9 8.700001,8.7s-3.9,8.700001 -8.700001,8.700001zm-4.5,-2.400002c0.1,0 0.2,0 0.3,0.1c1.3,0.800001 2.7,1.300001 4.2,1.300001c4.200001,0 7.700001,-3.400002 7.700001,-7.700001s-3.4,-7.7 -7.700001,-7.7c-4.2,0 -7.7,3.4 -7.7,7.7c0,1.6 0.5,3.2 1.5,4.5c0.1,0.1 0.1,0.299999 0.1,0.5l-0.8,2.1l2.2,-0.700001c0.1,-0.1 0.1,-0.1 0.2,-0.1zm7.2,-1.199999c-0.6,0 -1.400001,-0.200001 -2.6,-0.700001c-2.1,-0.9 -3.5,-2.7 -4.2,-3.7c-0.5,-0.599999 -1.2,-1.7 -1.2,-2.8c0,-1.299999 0.7,-2 1,-2.3c0.3,-0.3 0.7,-0.5 1.2,-0.5c0.099999,0 0.2,0 0.2,0c0.5,0 0.8,0.1 1,0.7l0.2,0.4c0.2,0.5 0.5,1.2 0.6,1.400001c0.099999,0.099999 0.2,0.5 0,0.9c-0.1,0.2 -0.2,0.3 -0.3,0.4c-0.1,0.1 -0.1,0.1 -0.2,0.200001c-0.1,0.099999 -0.1,0.099999 -0.2,0.2c0,0 0,0 0,0c0.2,0.3 0.599999,0.9 1.2,1.5c0.8,0.7 1.4,0.9 1.7,1.099999l0.1,0c0.099999,-0.099999 0.299999,-0.4 0.5,-0.7l0.099999,-0.099999c0.3,-0.400001 0.7,-0.5 1.2,-0.400001c0.200001,0.1 1.200001,0.6 1.700001,0.8l0.1,0.1c0.199999,0.099999 0.4,0.2 0.5,0.4c0.199999,0.3 0.099998,1 -0.1,1.6c-0.300001,0.699999 -1.200001,1.299999 -2,1.5c-0.1,0 -0.3,0 -0.5,0zm-5.8,-9c-0.2,0 -0.400001,0.099999 -0.5,0.099999c-0.2,0.3 -0.7,0.7 -0.7,1.7c0,0.6 0.3,1.400001 0.9,2.200001l0.1,0.099999c0.599999,0.900001 2,2.6 3.799999,3.400001c1.400001,0.6 2.1,0.699999 2.6,0.6c0.5,-0.1 1.1,-0.500001 1.200001,-0.800001c0.099998,-0.299999 0.099998,-0.599999 0.099998,-0.7c0,0 0,0 -0.099998,0l-0.1,-0.099999c-0.8,-0.400001 -1.5,-0.700001 -1.6,-0.8l-0.1,0.099999c-0.2,0.3 -0.4,0.6 -0.599999,0.8c-0.3,0.3 -0.7,0.400001 -1.1,0.2c-0.4,-0.2 -1.2,-0.5 -2.099999,-1.299999c-0.700001,-0.6 -1.200001,-1.400001 -1.400001,-1.8c-0.3,-0.5 0,-1 0.1,-1.1c0.099999,-0.099999 0.099999,-0.2 0.2,-0.3l0.1,-0.099999c0.099999,-0.1 0.099999,-0.2 0.2,-0.3c0,-0.1 -0.3,-0.9 -0.5,-1.4l-0.2,-0.400001c0,-0.099999 0,-0.2 0,-0.2c-0.200001,0.1 -0.200001,0.1 -0.3,0.1z"/>
 </g>
</svg>